<?xml version="1.0" encoding="utf-8"?>
<!-- Generator: Adobe Illustrator 23.0.3, SVG Export Plug-In . SVG Version: 6.00 Build 0)  -->
<svg version="1.1" id="Layer_1" xmlns="http://www.w3.org/2000/svg" xmlns:xlink="http://www.w3.org/1999/xlink" x="0px" y="0px"
	 viewBox="0 0 235.28 235.28" style="enable-background:new 0 0 235.28 235.28;" xml:space="preserve">
<style type="text/css">
	.st0{fill:#FFFFFF;}
	.st1{fill:#2E3192;}
</style>
<path class="st0" d="M185.32,211.3c0.71-2.45,1.03-4.85,1.35-7.19c0.66-4.87,0.32-8.56,0.22-9.55c-0.28-2.71-0.71-6.6-2.89-11.12
	c-0.53-1.08-2.59-5.17-6.89-9.11c-2.7-2.47-5.15-3.84-6.22-4.44c0,0-1.97-1.11-8-4.63l-6.24,19.38c-2.37-0.03-4.89-0.06-7.54-0.08
	c-9.89-0.09-18.27,0-21.78,0c0,0-45.67,1.39-88.89-0.67c-1.08-0.05-4.08-0.2-4.66-1.78c-0.41-1.09,0.25-2.31,0.44-2.67
	c0.65-1.21,1.75-1.78,2.45-2.22c2.96-1.86,5.21-0.88,10.44-1.33c3.62-0.32,7.14-0.67,10.22-3.11c0.45-0.36,2.08-1.7,3.34-4
	c1.17-2.14,1.47-4.09,1.77-8c0.35-4.44,0.53-6.65,0.45-8.89C62.66,145.17,61.9,49.25,62,38.11c0.01-1.5,0.09-5.68-2.67-8.67
	c-1-1.08-2.31-1.97-5.55-3.11c-2.51-0.88-4.85-1.43-6.79-1.78"/>
<path class="st0" d="M58.97,16.49l49.36-0.12v7.74c-1.29,0.07-2.67,0.14-4.11,0.22c-3.97,0.22-6.94,0.41-10.44,2
	c-1.95,0.89-3.41,1.64-4.67,2.89c-1.74,1.74-2.48,3.62-2.89,4.67c-0.72,1.86-0.9,3.4-1.11,6c-0.32,4.14-0.49,6.21-0.44,8.44
	c0.07,3.67,0.72,43.47,0,68c-0.35,12,0.33,24.01,0,36c-0.04,1.44-0.2,6.2,1.11,12.23c0.14,0.67,0.07,2.43,1.11,4.22
	c0.18,0.3,0.85,1.41,2.22,2.44c2.42,1.82,5.21,2.06,7.56,2.22c5.72,0.39,9.66,0.35,14.44,0.45c2.25,0.05,4.18,0.12,7.11,0.22
	c7.15,0.26,8.23,0.4,10.45,0.22c3.73-0.29,7.07-1.19,9.11-2c4.2-1.65,8.29-4.99,13.33-13.55c0.06-0.11,0.13-0.22,0.19-0.33
	c-1.89-1.12-3.95-2.34-6.19-3.67c-8.86-5.25-13.29-7.88-17.55-12c-4.28-4.14-15.73-15.2-16.23-32.45
	c-0.47-16.37,9.24-27.7,12.23-30.89c8.94-9.55,19.62-12.34,25.11-13.77c9.27-2.43,16.96-1.96,23.55-1.56
	c9.84,0.6,17.34,2.62,21.56,3.78c1.97,0.54,3.83,1.1,5.58,1.68l4.02,35.52l-7.89,1.45c-1.09-4.59-2.52-8.25-3.71-10.87
	c-2.8-6.15-5.44-11.97-11.78-16.45c-7.35-5.19-15.35-5.55-20.44-5.78c-4.29-0.19-7.82-0.34-12,1.34c-7.59,3.05-11.2,9.7-12.45,12
	c-4.98,9.19-5.08,21.12,0,29.55c2.01,3.34,4.71,5.92,7.11,8.23c3.58,3.42,6.9,5.71,10.89,8.22c2.93,1.84,5.17,3.13,7.18,4.22
	c3.31,1.79,5.97,3.02,10.03,5.22c1.34,0.73,2.84,1.56,4.57,2.56c5.3,3.06,10.12,5.86,16,10.44c5.34,4.16,8.01,6.24,10.44,9.34
	c6.49,8.24,7.88,17.78,8.16,23.47"/>
<path class="st1" d="M186.67,204.11c-0.32,2.34-0.64,4.74-1.35,7.19c-19.05,13.66-42.41,21.71-67.64,21.71
	c-64.19,0-116.22-52.03-116.22-116.21c0-34.22,14.79-64.98,38.32-86.24c2.32-2.11,4.73-4.11,7.21-6.01c1.94,0.35,4.28,0.9,6.79,1.78
	c3.24,1.14,4.55,2.03,5.55,3.11c2.76,2.99,2.68,7.17,2.67,8.67c-0.1,11.14,0.66,107.06,0.89,113.78c0.08,2.24-0.1,4.45-0.45,8.89
	c-0.3,3.91-0.6,5.86-1.77,8c-1.26,2.3-2.89,3.64-3.34,4c-3.08,2.44-6.6,2.79-10.22,3.11c-5.23,0.45-7.48-0.53-10.44,1.33
	c-0.7,0.44-1.8,1.01-2.45,2.22c-0.19,0.36-0.85,1.58-0.44,2.67c0.58,1.58,3.58,1.73,4.66,1.78c43.22,2.06,88.89,0.67,88.89,0.67
	c3.51,0,11.89-0.09,21.78,0c2.65,0.02,5.17,0.05,7.54,0.08l6.24-19.38c6.03,3.52,8,4.63,8,4.63c1.07,0.6,3.52,1.97,6.22,4.44
	c4.3,3.94,6.36,8.03,6.89,9.11c2.18,4.52,2.61,8.41,2.89,11.12C186.99,195.55,187.33,199.24,186.67,204.11z"/>
<path d="M233.89,116.8c0,26.84-9.1,51.56-24.4,71.23c-0.28-5.69-1.67-15.23-8.16-23.47c-2.43-3.1-5.1-5.18-10.44-9.34
	c-5.88-4.58-10.7-7.38-16-10.44c-1.73-1-3.23-1.83-4.57-2.56c-4.06-2.2-6.72-3.43-10.03-5.22c-2.01-1.09-4.25-2.38-7.18-4.22
	c-3.99-2.51-7.31-4.8-10.89-8.22c-2.4-2.31-5.1-4.89-7.11-8.23c-5.08-8.43-4.98-20.36,0-29.55c1.25-2.3,4.86-8.95,12.45-12
	c4.18-1.68,7.71-1.53,12-1.34c5.09,0.23,13.09,0.59,20.44,5.78c6.34,4.48,8.98,10.3,11.78,16.45c1.19,2.62,2.62,6.28,3.71,10.87
	l7.89-1.45l-4.02-35.52c-1.75-0.58-3.61-1.14-5.58-1.68c-4.22-1.16-11.72-3.18-21.56-3.78c-6.59-0.4-14.28-0.87-23.55,1.56
	c-5.49,1.43-16.17,4.22-25.11,13.77c-2.99,3.19-12.7,14.52-12.23,30.89c0.5,17.25,11.95,28.31,16.23,32.45
	c4.26,4.12,8.69,6.75,17.55,12c2.24,1.33,4.3,2.55,6.19,3.67c-0.06,0.11-0.13,0.22-0.19,0.33c-5.04,8.56-9.13,11.9-13.33,13.55
	c-2.04,0.81-5.38,1.71-9.11,2c-2.22,0.18-3.3,0.04-10.45-0.22c-2.93-0.1-4.86-0.17-7.11-0.22c-4.78-0.1-8.72-0.06-14.44-0.45
	c-2.35-0.16-5.14-0.4-7.56-2.22c-1.37-1.03-2.04-2.14-2.22-2.44c-1.04-1.79-0.97-3.55-1.11-4.22c-1.31-6.03-1.15-10.79-1.11-12.23
	c0.33-11.99-0.35-24,0-36c0.72-24.53,0.07-64.33,0-68c-0.05-2.23,0.12-4.3,0.44-8.44c0.21-2.6,0.39-4.14,1.11-6
	c0.41-1.05,1.15-2.93,2.89-4.67c1.26-1.25,2.72-2,4.67-2.89c3.5-1.59,6.47-1.78,10.44-2c1.44-0.08,2.82-0.15,4.11-0.22v-7.74
	l-49.36,0.12C76.19,6.37,96.26,0.58,117.68,0.58C181.86,0.58,233.89,52.61,233.89,116.8z"/>
<g>
</g>
<g>
</g>
<g>
</g>
<g>
</g>
<g>
</g>
<g>
</g>
</svg>
