<?xml version="1.0" encoding="utf-8"?>
<!-- Generator: Adobe Illustrator 23.0.3, SVG Export Plug-In . SVG Version: 6.00 Build 0)  -->
<svg version="1.1" id="Layer_1" xmlns="http://www.w3.org/2000/svg" xmlns:xlink="http://www.w3.org/1999/xlink" x="0px" y="0px"
	 viewBox="0 0 130.39 102.05" style="enable-background:new 0 0 130.39 102.05;" xml:space="preserve">
<style type="text/css">
	.st0{fill:none;}
	.st1{fill:url(#SVGID_1_);}
	.st2{fill:url(#SVGID_2_);}
	.st3{fill:url(#SVGID_3_);}
	.st4{fill:url(#SVGID_4_);}
	.st5{fill:url(#SVGID_5_);}
	.st6{fill:url(#SVGID_6_);}
	.st7{fill:url(#SVGID_7_);}
	.st8{fill:url(#SVGID_8_);}
	.st9{fill:url(#SVGID_9_);}
</style>
<path class="st0" d="M22.47,4.65c-0.01,0.01-0.01,0.01-0.02,0.01"/>
<line class="st0" x1="121.31" y1="68.8" x2="121.3" y2="68.81"/>
<line class="st0" x1="10.47" y1="25.99" x2="10.47" y2="25.98"/>
<line class="st0" x1="108.35" y1="76.74" x2="108.34" y2="76.75"/>
<line class="st0" x1="121.31" y1="68.8" x2="121.3" y2="68.81"/>
<path class="st0" d="M22.47,4.65c-0.01,0.01-0.01,0.01-0.02,0.01"/>
<linearGradient id="SVGID_1_" gradientUnits="userSpaceOnUse" x1="17.6" y1="43.4553" x2="47.58" y2="43.4553">
	<stop  offset="0" style="stop-color:#FFFFFF"/>
	<stop  offset="0.4413" style="stop-color:#202021;stop-opacity:0.6"/>
	<stop  offset="1" style="stop-color:#000000;stop-opacity:0.7"/>
</linearGradient>
<path class="st1" d="M47.58,29.58v2.91h-5.47c-0.79,0.4-1.54,0.8-2.19,1.2c-0.77,0.47-1.77,1.16-2.34,2.39
	c-0.19,0.42-0.34,0.93-0.39,3.11c-0.03,1.94,0.06,3.21,0.12,5c0.07,2.35-0.02,1.98,0.05,3.5c0.06,1.16,0.08,3.68,0.11,8.72
	c0,0.23,0,0.76-0.28,0.89c-0.19,0.09-0.42-0.04-0.55-0.11c-1.82-1.06-2.61-2.22-2.61-2.22s-2.81-2.37-6.67-6.39
	c-0.18-0.19-0.56-0.6-0.78-1.23c-0.3-0.86-0.11-1.64-0.05-1.94c0.07-0.37,0.05-1.82,0-4.72c-0.08-4.13-0.62-5.35-0.89-5.89
	c-0.51-1-1.01-1.49-1.28-1.72c-0.07-0.06-0.38-0.32-0.85-0.59h-5.85l-0.06-2.91H47.58z"/>
<line class="st0" x1="9.43" y1="27.54" x2="9.42" y2="27.55"/>
<path class="st0" d="M128.29,66.78c0.01,0,0.02-0.01,0.03-0.02v-0.01"/>
<line class="st0" x1="10.47" y1="25.99" x2="10.47" y2="25.98"/>
<linearGradient id="SVGID_2_" gradientUnits="userSpaceOnUse" x1="1.8927" y1="59.6296" x2="128.29" y2="59.6296">
	<stop  offset="2.793296e-03" style="stop-color:#00AEEF"/>
	<stop  offset="0.5112" style="stop-color:#1B75BC"/>
	<stop  offset="1" style="stop-color:#262262"/>
</linearGradient>
<path class="st2" d="M128.29,66.78c-2.84,3.4-6.26,6.8-10.37,9.96c-3.57,2.75-7.14,4.91-10.55,6.61c-3.76,1.9-7.34,3.25-10.57,4.25
	c-3.57,1.11-6.69,1.8-9.13,2.31c-5,1.06-9.68,1.58-13.96,1.74c-4.21,0.16-8.04-0.02-11.39-0.35c-4.46-0.43-8.1-1.12-10.74-1.64
	c-3.99-0.78-8.85-1.77-14.19-3.64c-3.47-1.21-7.15-2.8-10.91-4.95c-1.73-0.98-3.48-2.09-5.23-3.33c-1.63-1.15-12.22-8.77-16.67-19
	c-0.79-1.83-2.44-5.61-2.66-10.66c-0.11-2.39,0.13-4.42,0.41-6.84c0.38-3.18,0.81-4.67,1.25-5.83c0.1-0.25,0.64-1.67,1.5-3.08
	c1.05-1.73,2.53-3.38,4.34-4.78c-0.32,0.56-0.6,1.15-0.84,1.78c-0.56,1.51-0.79,3.05-1,4.41c-0.2,1.36-0.71,5.37,0.17,10.5
	c0,0,0.97,5.65,3.92,11.09c3.55,6.56,9.45,11.57,14.83,15.14c4.31,2.85,8.29,4.77,10.5,5.82c0.09,0.04,0.17,0.08,0.25,0.12
	c9.67,4.6,18.41,6.39,24.8,7.23c2.23,0.29,4.18,0.47,5.78,0.6c5.07,0.44,14.63,1.2,26.75-1.41c0.71-0.15,1.41-0.31,2.09-0.49
	c13.05-3.15,21.78-8.57,23.91-9.93C123.46,70.57,126.03,68.67,128.29,66.78z"/>
<line class="st0" x1="9.43" y1="27.54" x2="9.42" y2="27.55"/>
<path class="st0" d="M128.29,66.78c0.01,0,0.02-0.01,0.03-0.02v-0.01"/>
<linearGradient id="SVGID_3_" gradientUnits="userSpaceOnUse" x1="16.71" y1="90.8533" x2="107.3925" y2="90.8533">
	<stop  offset="2.793296e-03" style="stop-color:#00AEEF"/>
	<stop  offset="0.5112" style="stop-color:#1B75BC"/>
	<stop  offset="1" style="stop-color:#262262"/>
</linearGradient>
<path class="st3" d="M107.37,83.35c0.03,0.45,0.03,0.93,0,1.44c-0.02,0.42-0.13,1.8-0.74,3.5c-1.05,2.88-2.83,4.69-3.96,5.83
	c-1.14,1.13-4.27,4.19-9.42,5.71c-4.37,1.29-7.86,0.79-11.92,0.2c-2.56-0.36-5.35-0.79-8.54-2.54c-0.19-0.11-0.38-0.21-0.57-0.33
	c-0.37-0.21-0.71-0.43-1.04-0.65c-0.02,0.21-0.05,0.43-0.1,0.65c-0.15,0.83-0.41,1.7-0.83,2.58c-0.1,0.21-0.2,0.4-0.31,0.59H16.71
	v-2.89c0.94-0.03,1.56-0.07,2-0.11c0.23-0.03,0.7-0.08,1.42-0.13c1.25-0.09,1.32-0.05,1.74-0.12c0.38-0.07,1.26-0.22,2.13-0.84
	c0.81-0.57,1.21-1.25,1.5-1.75c0.11-0.19,0.65-1.13,0.87-2.54c0.15-0.91,0.1-1.62,0.09-1.83c-0.08-1.27-0.08-4.17,0.02-9.05
	c3.76,2.15,7.44,3.74,10.91,4.95c-0.03,1.43-0.05,3.39,0.11,5.14c0.03,0.33,0.1,0.96,0.5,1.63c0.41,0.67,0.97,1.03,1.25,1.2
	c1.05,0.66,2.15,0.67,2.92,0.67c3,0.01,4.5,0.02,5,0c1.58-0.06,1.13,0.02,5.37,0.04c2.88,0.01,4.6,0,6.42-0.04
	c0,0,0.66,0.07,1.58-0.04c1.3-0.16,1.56-0.49,1.63-0.59c0.28-0.39,0.14-0.9,0.08-1.24c-0.07-0.39-0.08-0.89,0.07-1.49
	c3.35,0.33,7.18,0.51,11.39,0.35c0.46,0.31,1.02,0.65,1.71,1.01c1.65,0.86,4.3,2.23,8.04,2.5c1.54,0.11,3.95,0.28,6.75-0.83
	c1.2-0.48,3.58-1.43,5.29-3.96c0.65-0.95,1.05-1.9,1.3-2.77C100.03,86.6,103.61,85.25,107.37,83.35z"/>
<line class="st0" x1="108.35" y1="76.74" x2="108.34" y2="76.75"/>
<linearGradient id="SVGID_4_" gradientUnits="userSpaceOnUse" x1="61.3518" y1="50.4829" x2="107.81" y2="50.4829">
	<stop  offset="0" style="stop-color:#D1D3D4"/>
	<stop  offset="0.3492" style="stop-color:#939598;stop-opacity:0.81"/>
	<stop  offset="0.6927" style="stop-color:#414042;stop-opacity:0.6"/>
	<stop  offset="1" style="stop-color:#000000;stop-opacity:0.7"/>
</linearGradient>
<path class="st4" d="M107.81,72.87c-3.44,1.37-7.66,2.44-12.48,2.37c-0.34,0-0.67-0.01-1-0.03c0,0,0,0-0.01,0
	c-1.17-0.96-2.5-1.98-3.99-3.05c-0.3-0.22-1.62-1.16-3.66-2.5c-3.77-2.47-5.98-3.62-9.34-5.58c-5.6-3.28-8.4-4.92-9.83-6.34
	c-1.6-1.58-4.72-4.67-5.79-9.66c-1.62-7.56,2.74-13.59,3.42-14.5c3.67-4.93,8.69-6.46,10.58-7c3.99-1.16,7.76-0.94,9.79-0.5
	c0.78,0.16,2.38,0.6,3.83,1.04c1.27,0.38,1.91,0.58,2.67,0.91c0.87,0.39,1.19,0.62,2.42,1.13c0.79,0.33,1.3,0.5,1.91,0.63
	c0.71,0.14,1.2,0.23,1.8,0.04c0.68-0.22,1.08-0.69,1.2-0.84c0.34-0.41,0.46-0.83,0.54-1.16c0.16-0.6,0.27-1.12,0.36-1.54h2.98v24.58
	h-3.12c-0.08-1.6-0.3-3.4-0.8-5.34c-0.64-2.53-1.38-5.43-3.79-8.29c-3.88-4.6-9.13-5.55-10.42-5.75c-1.49-0.22-4.9-0.69-8.5,1
	c-1.19,0.57-3.13,1.51-4.45,3.71c-1.16,1.91-1.29,3.82-1.26,4.88c0.02,0.46,0.11,2.32,1.26,4.33c1.25,2.21,3.07,3.37,3.87,3.88
	c12.53,7.82,17.62,10.66,17.63,10.66c1.43,0.8,5,2.81,8.74,6c1.12,0.95,2.16,1.93,3.21,3.29C106.56,70.51,107.28,71.76,107.81,72.87
	z"/>
<linearGradient id="SVGID_5_" gradientUnits="userSpaceOnUse" x1="10.3929" y1="41.3047" x2="124.61" y2="41.3047">
	<stop  offset="0" style="stop-color:#E6E7E8"/>
	<stop  offset="0.2765" style="stop-color:#202021;stop-opacity:0.6"/>
	<stop  offset="0.5894" style="stop-color:#1D1D1E;stop-opacity:0.6483"/>
	<stop  offset="1" style="stop-color:#000000;stop-opacity:0.7"/>
</linearGradient>
<path class="st5" d="M124.61,65.82c-0.84,1.04-1.79,2.08-2.86,3.1c-1.81,1.74-5.57,4.96-13.14,7.78l-0.01,0.01
	c-1.19,0.44-2.47,0.87-3.85,1.29c-2.74,0.82-5.44,1.45-8.08,1.91c-7.58,1.32-14.64,1.29-20.57,0.75c-0.92-0.09-1.82-0.19-2.69-0.3
	c-2.56-0.32-4.86-0.72-6.83-1.13c-1.8-0.37-3.32-0.74-4.53-1.06c-0.49-0.12-0.92-0.24-1.3-0.34C50.16,74.97,42.13,70.68,37,67.41
	c-1.42-0.89-2.61-1.72-3.58-2.41c-2.26-1.62-4.6-3.3-6.92-5.31c-2.63-2.3-5.25-5.03-7.75-8.61c-2.2-3.15-10.12-14.49-8-27
	c0.79-4.65,2.85-8.79,3-9.08c1.78-3.52,3.76-5.78,5.92-8.25c1.29-1.47,2.97-3.25,5.08-5.15c-4.55,5.38-9.8,13.96-9.33,24.65
	c0.37,8.62,4.29,14.8,6.91,18.92c8.53,13.41,21.12,19.11,30.42,23.33c5.22,2.36,17.42,7.3,33.25,7.92
	c10.76,0.41,17.96-1.37,19.75-1.84c3.02-0.78,8.28-2.19,14.17-5.66C121.48,67.99,122.97,67,124.61,65.82z"/>
<linearGradient id="SVGID_6_" gradientUnits="userSpaceOnUse" x1="33.8626" y1="63.9408" x2="29.5249" y2="71.4539">
	<stop  offset="2.793296e-03" style="stop-color:#939598"/>
	<stop  offset="0.3045" style="stop-color:#A7A9AC"/>
	<stop  offset="0.4556" style="stop-color:#8CACBC"/>
	<stop  offset="0.7248" style="stop-color:#2BADD6"/>
	<stop  offset="0.912" style="stop-color:#00ABE5"/>
	<stop  offset="1" style="stop-color:#00ACEC"/>
</linearGradient>
<path class="st6" d="M37,67.41v8.1c-1.86-0.91-3.43-1.75-4.71-2.47c-2.29-1.28-3.43-2.03-4.37-2.71c-0.51-0.36-0.99-0.72-1.42-1.07
	v-9.57c2.32,2.01,4.66,3.69,6.92,5.31C34.39,65.69,35.58,66.52,37,67.41z"/>
<linearGradient id="SVGID_7_" gradientUnits="userSpaceOnUse" x1="65.5611" y1="78.6417" x2="62.8914" y2="83.2658">
	<stop  offset="2.793296e-03" style="stop-color:#6D6E71"/>
	<stop  offset="0.3045" style="stop-color:#27AAE1"/>
	<stop  offset="0.4544" style="stop-color:#2297D4;stop-opacity:0.9669"/>
	<stop  offset="0.757" style="stop-color:#1B75BC;stop-opacity:0.9"/>
</linearGradient>
<path class="st7" d="M66.58,79.23v4.2c-0.71,0-1.49-0.06-2.33-0.18c-0.8-0.12-1.54-0.28-2.2-0.47v-4.61
	C63.26,78.49,64.78,78.86,66.58,79.23z"/>
<linearGradient id="SVGID_8_" gradientUnits="userSpaceOnUse" x1="75.5146" y1="80.322" x2="73.1036" y2="84.498">
	<stop  offset="2.793296e-03" style="stop-color:#D1D3D4"/>
	<stop  offset="0.4665" style="stop-color:#27AAE1;stop-opacity:0.96"/>
	<stop  offset="0.7204" style="stop-color:#2C6BB5;stop-opacity:0.8839"/>
	<stop  offset="0.9122" style="stop-color:#2D429B;stop-opacity:0.8263"/>
	<stop  offset="1" style="stop-color:#2E3192;stop-opacity:0.8"/>
</linearGradient>
<path class="st8" d="M76.1,80.66c0,0.48-0.05,0.99-0.14,1.55c-0.11,0.63-0.26,1.2-0.44,1.71c-1.22-0.05-2.44-0.09-3.66-0.14
	c0.38-0.73,0.75-1.5,1.1-2.32c0.16-0.37,0.31-0.74,0.45-1.1C74.28,80.47,75.18,80.57,76.1,80.66z"/>
<linearGradient id="SVGID_9_" gradientUnits="userSpaceOnUse" x1="96.67" y1="78.915" x2="108.6" y2="78.915">
	<stop  offset="2.793296e-03" style="stop-color:#27AAE1"/>
	<stop  offset="0.3045" style="stop-color:#808285"/>
	<stop  offset="0.4112" style="stop-color:#76768B"/>
	<stop  offset="0.5891" style="stop-color:#5A598F"/>
	<stop  offset="0.7128" style="stop-color:#3A428F"/>
	<stop  offset="0.7709" style="stop-color:#2B3990"/>
</linearGradient>
<path class="st9" d="M108.6,76.71c-1.22,0.94-2.68,1.86-4.39,2.62c-2.18,0.98-3.99,1.35-4.59,1.46c-1.06,0.2-2.05,0.3-2.95,0.33
	v-1.21c2.64-0.46,5.34-1.09,8.08-1.91C106.13,77.58,107.41,77.15,108.6,76.71z"/>
<g>
</g>
<g>
</g>
<g>
</g>
<g>
</g>
<g>
</g>
<g>
</g>
</svg>
